HIERARCHY
ROOT Hips
{
  OFFSET 12.5924 87.7646 8.5502
  CHANNELS 6 Xposition Yposition Zposition Zrotation Xrotation Yrotation
  JOINT RightUpLeg
  {
    OFFSET -9.27424 -1.51647 -0.00177081
    CHANNELS 3 Zrotation Xrotation Yrotation
    JOINT RightLeg
    {
      OFFSET -0.0218595 -41.9179 0.0996455
      CHANNELS 3 Zrotation Xrotation Yrotation
      JOINT RightFoot
      {
        OFFSET -0.864559 -41.9626 -0.357059
        CHANNELS 3 Zrotation Xrotation Yrotation
        End Site
        {
          OFFSET 0 -7.69 17.5
        }
      }
    }
  }
  JOINT LeftUpLeg
  {
    OFFSET 9.25718 -1.5867 0.052377
    CHANNELS 3 Zrotation Xrotation Yrotation
    JOINT LeftLeg
    {
      OFFSET 0.0916619 -41.8676 0.000817906
      CHANNELS 3 Zrotation Xrotation Yrotation
      JOINT LeftFoot
      {
        OFFSET -0.467602 -41.8546 0.208385
        CHANNELS 3 Zrotation Xrotation Yrotation
        End Site
        {
          OFFSET 0 -7.69 17.5
        }
      }
    }
  }
  JOINT Spine
  {
    OFFSET 0.0181296 14.2981 0.0454815
    CHANNELS 3 Zrotation Xrotation Yrotation
    JOINT Spine1
    {
      OFFSET 0.0179205 9.71532 0.0144816
      CHANNELS 3 Zrotation Xrotation Yrotation
      JOINT Spine2
      {
        OFFSET 0.0460832 10.1118 -0.00781291
        CHANNELS 3 Zrotation Xrotation Yrotation
        JOINT Spine3
        {
          OFFSET 0.0326005 9.72657 -0.000132442
          CHANNELS 3 Zrotation Xrotation Yrotation
          JOINT Neck
          {
            OFFSET -0.0594321 10.3688 0.0892585
            CHANNELS 3 Zrotation Xrotation Yrotation
            JOINT Head
            {
              OFFSET -0.027184 9.52116 0.11923
              CHANNELS 3 Zrotation Xrotation Yrotation
              End Site
              {
                OFFSET 0 15.95 0
              }
            }
          }
          JOINT RightShoulder
          {
            OFFSET -3.18249 6.94712 0.0315742
            CHANNELS 3 Zrotation Xrotation Yrotation
            JOINT RightArm
            {
              OFFSET -12.6859 -0.0281953 -0.0223312
              CHANNELS 3 Zrotation Xrotation Yrotation
              JOINT RightForeArm
              {
                OFFSET -26.4349 -0.138904 0.103809
                CHANNELS 3 Zrotation Xrotation Yrotation
                JOINT RightHand
                {
                  OFFSET -26.0404 -0.036643 0.02476
                  CHANNELS 3 Zrotation Xrotation Yrotation
                  JOINT RightHandThumb1
                  {
                    OFFSET -2.48905 0.190105 3.12053
                    CHANNELS 3 Zrotation Xrotation Yrotation
                    JOINT RightHandThumb2
                    {
                      OFFSET -3.68274 0 0
                      CHANNELS 3 Zrotation Xrotation Yrotation
                      JOINT RightHandThumb3
                      {
                        OFFSET -2.55832 0 0
                        CHANNELS 3 Zrotation Xrotation Yrotation
                        End Site
                        {
                          OFFSET -2.194 0 0
                        }
                      }
                    }
                  }
                  JOINT RightInHandIndex
                  {
                    OFFSET -3.22368 0.508421 1.97842
                    CHANNELS 3 Zrotation Xrotation Yrotation
                    JOINT RightHandIndex1
                    {
                      OFFSET -5.21684 -0.091368 0.999158
                      CHANNELS 3 Zrotation Xrotation Yrotation
                      JOINT RightHandIndex2
                      {
                        OFFSET -3.61937 0 0
                        CHANNELS 3 Zrotation Xrotation Yrotation
                        JOINT RightHandIndex3
                        {
                          OFFSET -2.0521 0 0
                          CHANNELS 3 Zrotation Xrotation Yrotation
                          End Site
                          {
                            OFFSET -1.805 0 0
                          }
                        }
                      }
                    }
                  }
                  JOINT RightInHandMiddle
                  {
                    OFFSET -3.38211 0.517263 0.756737
                    CHANNELS 3 Zrotation Xrotation Yrotation
                    JOINT RightHandMiddle1
                    {
                      OFFSET -5.17411 -0.084 0.313895
                      CHANNELS 3 Zrotation Xrotation Yrotation
                      JOINT RightHandMiddle2
                      {
                        OFFSET -3.94947 0 0
                        CHANNELS 3 Zrotation Xrotation Yrotation
                        JOINT RightHandMiddle3
                        {
                          OFFSET -2.47579 0 0
                          CHANNELS 3 Zrotation Xrotation Yrotation
                          End Site
                          {
                            OFFSET -1.975 0 0
                          }
                        }
                      }
                    }
                  }
                  JOINT RightInHandRing
                  {
                    OFFSET -3.36516 0.537895 -0.128947
                    CHANNELS 3 Zrotation Xrotation Yrotation
                    JOINT RightHandRing1
                    {
                      OFFSET -4.63474 -0.022105 -0.478947
                      CHANNELS 3 Zrotation Xrotation Yrotation
                      JOINT RightHandRing2
                      {
                        OFFSET -3.44238 0 0
                        CHANNELS 3 Zrotation Xrotation Yrotation
                        JOINT RightHandRing3
                        {
                          OFFSET -2.3881 0 0
                          CHANNELS 3 Zrotation Xrotation Yrotation
                          End Site
                          {
                            OFFSET -1.857 0 0
                          }
                        }
                      }
                    }
                  }
                  JOINT RightInHandPinky
                  {
                    OFFSET -3.16105 0.469368 -1.20179
                    CHANNELS 3 Zrotation Xrotation Yrotation
                    JOINT RightHandPinky1
                    {
                      OFFSET -4.14105 -0.022105 -1.09053
                      CHANNELS 3 Zrotation Xrotation Yrotation
                      JOINT RightHandPinky2
                      {
                        OFFSET -2.75653 0 0
                        CHANNELS 3 Zrotation Xrotation Yrotation
                        JOINT RightHandPinky3
                        {
                          OFFSET -1.74189 0 0
                          CHANNELS 3 Zrotation Xrotation Yrotation
                          End Site
                          {
                            OFFSET -1.645 0 0
                          }
                        }
                      }
                    }
                  }
                }
              }
            }
          }
          JOINT LeftShoulder
          {
            OFFSET 3.21289 6.91298 -0.0113859
            CHANNELS 3 Zrotation Xrotation Yrotation
            JOINT LeftArm
            {
              OFFSET 12.7691 -0.0256594 -0.0399854
              CHANNELS 3 Zrotation Xrotation Yrotation
              JOINT LeftForeArm
              {
                OFFSET 26.4177 -0.0137926 -0.00219879
                CHANNELS 3 Zrotation Xrotation Yrotation
                JOINT LeftHand
                {
                  OFFSET 26.0013 -0.0633708 -0.0119906
                  CHANNELS 3 Zrotation Xrotation Yrotation
                  JOINT LeftHandThumb1
                  {
                    OFFSET 2.48905 0.190105 3.12053
                    CHANNELS 3 Zrotation Xrotation Yrotation
                    JOINT LeftHandThumb2
                    {
                      OFFSET 3.68274 0 0
                      CHANNELS 3 Zrotation Xrotation Yrotation
                      JOINT LeftHandThumb3
                      {
                        OFFSET 2.55832 0 0
                        CHANNELS 3 Zrotation Xrotation Yrotation
                        End Site
                        {
                          OFFSET 2.194 0 0
                        }
                      }
                    }
                  }
                  JOINT LeftInHandIndex
                  {
                    OFFSET 3.22368 0.508421 1.97842
                    CHANNELS 3 Zrotation Xrotation Yrotation
                    JOINT LeftHandIndex1
                    {
                      OFFSET 5.21684 -0.091368 0.999158
                      CHANNELS 3 Zrotation Xrotation Yrotation
                      JOINT LeftHandIndex2
                      {
                        OFFSET 3.61937 0 0
                        CHANNELS 3 Zrotation Xrotation Yrotation
                        JOINT LeftHandIndex3
                        {
                          OFFSET 2.0521 0 0
                          CHANNELS 3 Zrotation Xrotation Yrotation
                          End Site
                          {
                            OFFSET 1.805 0 0
                          }
                        }
                      }
                    }
                  }
                  JOINT LeftInHandMiddle
                  {
                    OFFSET 3.38211 0.517263 0.756737
                    CHANNELS 3 Zrotation Xrotation Yrotation
                    JOINT LeftHandMiddle1
                    {
                      OFFSET 5.17411 -0.084 0.313895
                      CHANNELS 3 Zrotation Xrotation Yrotation
                      JOINT LeftHandMiddle2
                      {
                        OFFSET 3.94947 0 0
                        CHANNELS 3 Zrotation Xrotation Yrotation
                        JOINT LeftHandMiddle3
                        {
                          OFFSET 2.47579 0 0
                          CHANNELS 3 Zrotation Xrotation Yrotation
                          End Site
                          {
                            OFFSET 1.975 0 0
                          }
                        }
                      }
                    }
                  }
                  JOINT LeftInHandRing
                  {
                    OFFSET 3.36516 0.537895 -0.128947
                    CHANNELS 3 Zrotation Xrotation Yrotation
                    JOINT LeftHandRing1
                    {
                      OFFSET 4.63474 -0.022105 -0.478947
                      CHANNELS 3 Zrotation Xrotation Yrotation
                      JOINT LeftHandRing2
                      {
                        OFFSET 3.44238 0 0
                        CHANNELS 3 Zrotation Xrotation Yrotation
                        JOINT LeftHandRing3
                        {
                          OFFSET 2.3881 0 0
                          CHANNELS 3 Zrotation Xrotation Yrotation
                          End Site
                          {
                            OFFSET 1.857 0 0
                          }
                        }
                      }
                    }
                  }
                  JOINT LeftInHandPinky
                  {
                    OFFSET 3.16105 0.469368 -1.20179
                    CHANNELS 3 Zrotation Xrotation Yrotation
                    JOINT LeftHandPinky1
                    {
                      OFFSET 4.14105 -0.022105 -1.09053
                      CHANNELS 3 Zrotation Xrotation Yrotation
                      JOINT LeftHandPinky2
                      {
                        OFFSET 2.75653 0 0
                        CHANNELS 3 Zrotation Xrotation Yrotation
                        JOINT LeftHandPinky3
                        {
                          OFFSET 1.74189 0 0
                          CHANNELS 3 Zrotation Xrotation Yrotation
                          End Site
                          {
                            OFFSET 1.645 0 0
                          }
                        }
                      }
                    }
                  }
                }
              }
            }
          }
        }
      }
    }
  }
}
MOTION
Frames: 3
Frame Time: 0.00833333
1.516642899999999827e+03 8.802209999999999468e+01 7.669039999999998969e+00 2.446109999999999829e+01 -1.282399999999999807e+01 -1.236140000000000043e+02 -5.127720000000000944e+00 -5.793560000000000088e+01 1.001890000000000036e+01 6.863150000000000084e+00 3.271800000000000352e+01 -1.552480000000000082e+01 5.026900000000000368e+00 -4.239230000000000054e+00 2.854269999999999996e+01 1.557420000000000115e+01 -5.571010000000000417e+01 6.415820000000000078e+00 5.706649999999999778e+00 3.282269999999999044e+01 7.075610000000000177e+00 -1.132349999999999746e+01 -1.472509999999999986e+00 3.022870000000000279e-01 2.496049999999999935e-01 1.465759999999999863e+01 2.406280000000000197e+00 1.160510000000000014e-01 3.739589999999999748e+00 6.625940000000000163e-01 1.701969999999999872e-01 6.147689999999999877e+00 1.152260000000000284e+00 -6.119940000000000380e-01 8.392450000000000188e-01 -4.084439999999999182e-01 -6.139289999999999470e-01 8.388660000000000005e-01 -4.226640000000000397e-01 -1.031109999999999971e+01 1.436260000000000048e+01 -8.636179999999999524e+00 4.233150000000000190e+00 -7.770709999999999562e-01 6.372329999999999828e+00 6.256980000000000075e+01 2.121290000000000475e+01 6.089540000000000930e+01 3.318069999999999631e+00 -3.243010000000000304e+01 -1.235000000000000320e+00 1.235410000000000252e+01 -2.846550000000000225e+01 7.261800000000000921e+00 2.818400000000000105e+01 1.072940000000000005e+01 1.915919999999999845e+01 -4.844430000000000505e-15 0.000000000000000000e+00 -1.000000000000000000e+01 -6.391600000000000755e-15 9.541660000000000512e-15 -1.000000000000000000e+01 -7.951389999999999226e-16 -6.361109999999999741e-15 4.770830000000000256e-15 1.998179999999999978e+01 8.718970000000000331e-01 2.396399999999999864e+00 2.400000000000000000e+01 0.000000000000000000e+00 -6.361109999999999741e-15 2.000000000000000000e+01 1.292099999999999440e-15 9.541660000000000512e-15 -7.951389999999999226e-16 -6.361109999999999741e-15 4.770830000000000256e-15 2.000000000000000000e+01 0.000000000000000000e+00 9.541660000000000512e-15 2.400000000000000000e+01 -7.951389999999999226e-15 3.180549999999999982e-15 2.000000000000000000e+01 2.186630000000000192e-15 6.361109999999999741e-15 -7.951389999999999226e-16 -6.361109999999999741e-15 4.770830000000000256e-15 1.997479999999999833e+01 -1.025649999999999951e+00 -2.819380000000000219e+00 2.400000000000000000e+01 1.590280000000000668e-15 -6.361109999999999741e-15 2.000000000000000000e+01 -3.180549999999999193e-15 -1.272219999999999993e-14 -7.951389999999999226e-16 -6.361109999999999741e-15 4.770830000000000256e-15 1.978150000000000119e+01 -3.009479999999999933e+00 -8.305149999999999366e+00 2.400000000000000000e+01 -1.987850000000000145e-15 0.000000000000000000e+00 2.000000000000000000e+01 -3.975689999999998936e-15 -3.180549999999999587e-15 -1.413529999999999909e+01 -1.145529999999999937e+01 -1.217880000000000074e+01 -3.495530000000000115e+01 4.981600000000000250e+01 -6.135920000000000130e+01 -2.795329999999999870e+01 -7.290060000000001139e+01 -3.486829999999999785e+01 -2.238909999999999201e+01 -7.247859999999998593e+01 -3.186509999999999820e+01 -2.818400000000000105e+01 1.072940000000000005e+01 -1.915919999999999845e+01 -5.608180000000002710e-16 3.180549999999999982e-15 1.000000000000000000e+01 -3.229619999999999811e-15 0.000000000000000000e+00 1.000000000000000000e+01 0.000000000000000000e+00 0.000000000000000000e+00 -3.180549999999999982e-15 -1.998179999999999978e+01 8.718970000000000331e-01 -2.396399999999999864e+00 -2.400000000000000000e+01 0.000000000000000000e+00 0.000000000000000000e+00 -2.000000000000000000e+01 1.490890000000000053e-15 3.180549999999999193e-15 0.000000000000000000e+00 0.000000000000000000e+00 -3.180549999999999982e-15 -2.000000000000000000e+01 3.180549999999999587e-15 -3.180549999999999982e-15 -2.400000000000000000e+01 4.770830000000000256e-15 0.000000000000000000e+00 -2.000000000000000000e+01 1.391490000000000055e-15 3.180550000000000771e-15 0.000000000000000000e+00 0.000000000000000000e+00 -3.180549999999999982e-15 -1.997479999999999833e+01 -1.025649999999999951e+00 2.819380000000000219e+00 -2.400000000000000000e+01 -7.951389999999999226e-16 -6.361110000000001319e-15 -2.000000000000000000e+01 5.963539999999999870e-15 9.541660000000000512e-15 0.000000000000000000e+00 0.000000000000000000e+00 -3.180549999999999982e-15 -1.978150000000000119e+01 -3.009479999999999933e+00 8.305149999999999366e+00 -2.400000000000000000e+01 -2.385420000000000805e-15 0.000000000000000000e+00 -2.000000000000000000e+01 0.000000000000000000e+00 9.541660000000000512e-15
1.516614300000000185e+03 8.802150000000000318e+01 7.666719999999999757e+00 2.439610000000000412e+01 -1.284280000000000044e+01 -1.238040000000000020e+02 -4.872989999999999711e+00 -5.790509999999999735e+01 1.027009999999999756e+01 6.770590000000000330e+00 3.269780000000000086e+01 -1.541960000000000086e+01 5.038789999999999658e+00 -4.198389999999999844e+00 2.856330000000000169e+01 1.579149999999999920e+01 -5.560960000000000747e+01 6.602059999999999818e+00 5.618909999999999627e+00 3.289569999999999794e+01 7.137130000000000862e+00 -1.134110000000000085e+01 -1.557350000000000012e+00 3.597959999999999492e-01 2.403609999999999913e-01 1.467810000000000237e+01 2.364740000000000286e+00 1.140229999999999994e-01 3.744169999999999998e+00 6.508429999999999493e-01 1.653959999999999597e-01 6.153480000000000949e+00 1.131709999999999994e+00 -6.174140000000001294e-01 8.385160000000000391e-01 -4.014089999999999603e-01 -6.193980000000000041e-01 8.389020000000000366e-01 -4.156219999999999914e-01 -1.042689999999999984e+01 1.437639999999999851e+01 -8.498279999999999390e+00 4.119679999999999787e+00 -8.171910000000001117e-01 6.273550000000000182e+00 6.255029999999999291e+01 2.098829999999999885e+01 6.069570000000000221e+01 3.921969999999999956e+00 -3.255279999999999063e+01 -3.267350000000001087e-01 1.212030000000000030e+01 -2.842180000000000106e+01 7.080100000000001614e+00 2.818400000000000105e+01 1.072940000000000005e+01 1.915919999999999845e+01 7.513230000000000011e-15 -3.180549999999999587e-15 -1.000000000000000000e+01 9.688859999999999433e-15 0.000000000000000000e+00 -1.000000000000000000e+01 2.385420000000000017e-15 3.180549999999999982e-15 -4.770830000000000256e-15 1.998179999999999978e+01 8.718970000000000331e-01 2.396399999999999864e+00 2.400000000000000000e+01 4.770830000000000256e-15 3.180549999999999982e-15 2.000000000000000000e+01 -9.939230000000020105e-17 9.541660000000000512e-15 2.385420000000000017e-15 3.180549999999999982e-15 -4.770830000000000256e-15 2.000000000000000000e+01 0.000000000000000000e+00 0.000000000000000000e+00 2.400000000000000000e+01 -4.770830000000001045e-15 -3.180549999999999982e-15 2.000000000000000000e+01 7.951389999999999226e-16 -6.361109999999999741e-15 2.385420000000000017e-15 3.180549999999999982e-15 -4.770830000000000256e-15 1.997479999999999833e+01 -1.025649999999999951e+00 -2.819380000000000219e+00 2.400000000000000000e+01 -5.565969999999999999e-15 0.000000000000000000e+00 2.000000000000000000e+01 2.385420000000000017e-15 -3.180549999999999193e-15 2.385420000000000017e-15 3.180549999999999982e-15 -4.770830000000000256e-15 1.978150000000000119e+01 -3.009479999999999933e+00 -8.305149999999999366e+00 2.400000000000000000e+01 1.073439999999999867e-14 6.361109999999998952e-15 2.000000000000000000e+01 3.975689999999999725e-15 0.000000000000000000e+00 -1.409680000000000000e+01 -1.155779999999999852e+01 -1.214049999999999940e+01 -3.536229999999999762e+01 4.972310000000000230e+01 -6.100390000000000157e+01 -2.652479999999999549e+01 -7.201769999999999072e+01 -3.372429999999999950e+01 -2.124370000000000047e+01 -7.276519999999999300e+01 -3.106570000000000320e+01 -2.818400000000000105e+01 1.072940000000000005e+01 -1.915919999999999845e+01 -3.790440000000000116e-15 3.180550000000000376e-15 1.000000000000000000e+01 -1.081050000000000004e-14 6.361109999999998163e-15 1.000000000000000000e+01 -3.180549999999999982e-15 -3.180550000000000771e-15 1.590279999999999485e-15 -1.998179999999999978e+01 8.718970000000000331e-01 -2.396399999999999864e+00 -2.400000000000000000e+01 -3.180550000000000376e-15 3.180549999999999193e-15 -2.000000000000000000e+01 1.838759999999999926e-15 -6.361109999999998952e-15 -3.180549999999999982e-15 -3.180550000000000771e-15 1.590279999999999485e-15 -2.000000000000000000e+01 -3.180549999999999587e-15 6.361109999999999741e-15 -2.400000000000000000e+01 4.770830000000000256e-15 3.180549999999999587e-15 -2.000000000000000000e+01 2.782990000000000282e-15 0.000000000000000000e+00 -3.180549999999999982e-15 -3.180550000000000771e-15 1.590279999999999485e-15 -1.997479999999999833e+01 -1.025649999999999951e+00 2.819380000000000219e+00 -2.400000000000000000e+01 1.590280000000000077e-15 9.541660000000000512e-15 -2.000000000000000000e+01 3.975689999999998936e-15 3.180549999999999982e-15 -3.180549999999999982e-15 -3.180550000000000771e-15 1.590279999999999485e-15 -1.978150000000000119e+01 -3.009479999999999933e+00 8.305149999999999366e+00 -2.400000000000000000e+01 0.000000000000000000e+00 -3.180549999999999982e-15 -2.000000000000000000e+01 -2.385419999999999622e-15 3.180549999999998799e-15
1.516584100000000035e+03 8.802079999999999416e+01 7.663030000000000896e+00 2.433020000000000138e+01 -1.285519999999999996e+01 -1.239929999999999950e+02 -4.605800000000000338e+00 -5.786950000000000216e+01 1.051110000000000255e+01 6.662289999999999601e+00 3.268180000000000263e+01 -1.529749999999999943e+01 5.063990000000000435e+00 -4.145609999999999573e+00 2.858989999999999654e+01 1.598759999999999870e+01 -5.550370000000000203e+01 6.744620000000000282e+00 5.530439999999999579e+00 3.297279999999999944e+01 7.238789999999998948e+00 -1.136040000000000028e+01 -1.640439999999999676e+00 4.066899999999999959e-01 2.344839999999999702e-01 1.469399999999999906e+01 2.311879999999999935e+00 1.102219999999999867e-01 3.745579999999999909e+00 6.362550000000000150e-01 1.616019999999999956e-01 6.156930000000000014e+00 1.106300000000000061e+00 -6.227409999999999890e-01 8.378689999999999749e-01 -3.940629999999999966e-01 -6.247740000000001626e-01 8.389380000000000726e-01 -4.082670000000000465e-01 -1.054059999999999953e+01 1.440680000000000049e+01 -8.355719999999998038e+00 4.006969999999999921e+00 -8.453880000000000283e-01 6.158809999999999896e+00 6.247650000000000148e+01 2.076669999999999661e+01 6.049179999999999779e+01 4.621699999999999697e+00 -3.276760000000000161e+01 7.097219999999999640e-01 1.188860000000000028e+01 -2.838729999999999976e+01 6.904029999999999667e+00 2.818400000000000105e+01 1.072940000000000005e+01 1.915919999999999845e+01 7.827459999999999597e-15 3.180549999999999982e-15 -1.000000000000000000e+01 7.513230000000000011e-15 -3.180550000000000771e-15 -1.000000000000000000e+01 3.180549999999999982e-15 9.541660000000002090e-15 -1.590280000000000077e-15 1.998179999999999978e+01 8.718970000000000331e-01 2.396399999999999864e+00 2.400000000000000000e+01 0.000000000000000000e+00 -3.180549999999999982e-15 2.000000000000000000e+01 1.391490000000000055e-15 9.541660000000000512e-15 3.180549999999999982e-15 9.541660000000002090e-15 -1.590280000000000077e-15 2.000000000000000000e+01 3.180549999999999193e-15 1.590280000000000432e-14 2.400000000000000000e+01 -1.590280000000000274e-15 -9.541660000000000512e-15 2.000000000000000000e+01 -9.939230000000000383e-16 0.000000000000000000e+00 3.180549999999999982e-15 9.541660000000002090e-15 -1.590280000000000077e-15 1.997479999999999833e+01 -1.025649999999999951e+00 -2.819380000000000219e+00 2.400000000000000000e+01 7.951390000000000804e-15 -3.180549999999999982e-15 2.000000000000000000e+01 2.782989999999999888e-15 6.361109999999999741e-15 3.180549999999999982e-15 9.541660000000002090e-15 -1.590280000000000077e-15 1.978150000000000119e+01 -3.009479999999999933e+00 -8.305149999999999366e+00 2.400000000000000000e+01 -1.987850000000000145e-15 1.590280000000000116e-14 2.000000000000000000e+01 -7.951389999999997254e-16 -6.361109999999999741e-15 -1.404239999999999888e+01 -1.165179999999999971e+01 -1.210699999999999932e+01 -3.495429999999999637e+01 4.982289999999999708e+01 -6.141060000000000940e+01 -2.656669999999999732e+01 -7.228990000000000293e+01 -3.380170000000000385e+01 -1.984039999999999893e+01 -7.231589999999999918e+01 -2.992499999999999716e+01 -2.818400000000000105e+01 1.072940000000000005e+01 -1.915919999999999845e+01 1.769530000000000021e-14 9.541660000000000512e-15 1.000000000000000000e+01 5.898419999999999317e-15 3.180550000000000771e-15 1.000000000000000000e+01 0.000000000000000000e+00 -3.180550000000000771e-15 4.770830000000000256e-15 -1.998179999999999978e+01 8.718970000000000331e-01 -2.396399999999999864e+00 -2.400000000000000000e+01 6.361109999999999741e-15 3.180549999999999982e-15 -2.000000000000000000e+01 6.162319999999999522e-15 6.361109999999998952e-15 0.000000000000000000e+00 -3.180550000000000771e-15 4.770830000000000256e-15 -2.000000000000000000e+01 3.180549999999999982e-15 0.000000000000000000e+00 -2.400000000000000000e+01 1.590279999999999880e-15 3.180549999999999982e-15 -2.000000000000000000e+01 2.683589999999999495e-15 1.272220000000000151e-14 0.000000000000000000e+00 -3.180550000000000771e-15 4.770830000000000256e-15 -1.997479999999999833e+01 -1.025649999999999951e+00 2.819380000000000219e+00 -2.400000000000000000e+01 0.000000000000000000e+00 6.361109999999999741e-15 -2.000000000000000000e+01 -3.975690000000004458e-16 -3.180549999999999587e-15 0.000000000000000000e+00 -3.180550000000000771e-15 4.770830000000000256e-15 -1.978150000000000119e+01 -3.009479999999999933e+00 8.305149999999999366e+00 -2.400000000000000000e+01 7.156250000000001061e-15 0.000000000000000000e+00 -2.000000000000000000e+01 -2.385420000000000017e-15 0.000000000000000000e+00
